<svg width="27" height="27" viewBox="0 0 27 27" fill="none" xmlns="http://www.w3.org/2000/svg">
<path d="M20.1638 22.0772C18.8716 23.2909 17.4606 23.0993 16.1024 22.5244C14.6651 21.9367 13.3464 21.9111 11.83 22.5244C9.93114 23.3165 8.92897 23.0865 7.79493 22.0772C1.35994 15.6508 2.30937 5.86426 9.61466 5.50653C11.3948 5.59596 12.6344 6.45196 13.6761 6.52862C15.2321 6.22199 16.7222 5.34044 18.3837 5.45542C20.3748 5.60874 21.8781 6.37531 22.8671 7.75513C18.7529 10.1443 19.7287 15.3953 23.5 16.8645C22.7484 18.781 21.7726 20.6846 20.1506 22.09L20.1638 22.0772ZM13.5442 5.42987C13.3464 2.58079 15.7332 0.229971 18.476 0C18.8584 3.29625 15.3903 5.74927 13.5442 5.42987Z" fill="black"/>
</svg>
