<svg width="528" height="809" viewBox="0 0 528 809" fill="none" xmlns="http://www.w3.org/2000/svg">
<path d="M71.1398 599.385C82.1896 602.346 92.4616 601.085 101.956 595.604C111.45 590.122 117.661 581.866 120.589 570.836C123.517 559.805 122.253 549.546 116.797 540.059C111.342 530.571 103.089 524.347 92.0394 521.386C80.9896 518.426 70.7306 519.69 61.2624 525.178C51.7942 530.666 45.5702 538.919 42.5903 549.936C39.6105 560.953 40.8709 571.225 46.3714 580.752C51.8719 590.279 60.128 596.49 71.1398 599.385ZM73.9398 432.938L151.938 453.838L214.637 219.842L136.639 198.943L73.9398 432.938ZM18.8907 794.381C-35.0583 779.926 -83.0125 756.097 -124.972 722.896C-166.931 689.694 -200.762 650.854 -226.463 606.376C-252.165 561.898 -268.886 513.18 -276.627 460.222C-284.367 407.264 -281.026 353.82 -266.604 299.891C-252.181 245.961 -228.352 198.006 -195.118 156.028C-161.883 114.049 -123.044 80.2189 -78.5984 54.5365C-34.1532 28.8541 14.5648 12.133 67.5555 4.37328C120.546 -3.38645 173.99 -0.0455013 227.887 14.3961C281.784 28.8378 329.738 52.6664 371.75 85.8819C413.761 119.097 447.592 157.937 473.241 202.401C498.891 246.866 515.625 295.587 523.443 348.566C531.262 401.544 527.908 454.985 513.381 508.887C498.855 562.789 475.026 610.743 441.896 652.75C408.765 694.756 369.925 728.586 325.376 754.241C280.827 779.895 232.105 796.629 179.212 804.443C126.318 812.257 72.8777 808.903 18.8907 794.381Z" fill="#FF7B00" fill-opacity="0.25"/>
</svg>
