<svg width="20" height="21" viewBox="0 0 20 21" fill="none" xmlns="http://www.w3.org/2000/svg">
<path d="M3.33317 17.1666C2.87484 17.1666 2.48262 17.0036 2.1565 16.6775C1.83039 16.3514 1.66706 15.9589 1.6665 15.5V5.49998C1.6665 5.04165 1.82984 4.64942 2.1565 4.32331C2.48317 3.9972 2.87539 3.83387 3.33317 3.83331H8.33317L9.99984 5.49998H16.6665C17.1248 5.49998 17.5173 5.66331 17.844 5.98998C18.1707 6.31665 18.3337 6.70887 18.3332 7.16665V15.5C18.3332 15.9583 18.1701 16.3508 17.844 16.6775C17.5179 17.0041 17.1254 17.1672 16.6665 17.1666H3.33317ZM3.33317 15.5H16.6665V7.16665H9.31234L7.64567 5.49998H3.33317V15.5Z" fill="#EBEBEB"/>
</svg>
