<svg width="24" height="25" viewBox="0 0 24 25" fill="none" xmlns="http://www.w3.org/2000/svg">
<path d="M11 17.5H19V16.95C19 16.2 18.6333 15.6043 17.9 15.163C17.1667 14.7217 16.2 14.5007 15 14.5C13.8 14.4993 12.8333 14.7203 12.1 15.163C11.3667 15.6057 11 16.2013 11 16.95V17.5ZM15 13.5C15.55 13.5 16.021 13.3043 16.413 12.913C16.805 12.5217 17.0007 12.0507 17 11.5C16.9993 10.9493 16.8037 10.4787 16.413 10.088C16.0223 9.69733 15.5513 9.50133 15 9.5C14.4487 9.49867 13.978 9.69467 13.588 10.088C13.198 10.4813 13.002 10.952 13 11.5C12.998 12.048 13.194 12.519 13.588 12.913C13.982 13.307 14.4527 13.5027 15 13.5ZM4 20.5C3.45 20.5 2.97933 20.3043 2.588 19.913C2.19667 19.5217 2.00067 19.0507 2 18.5V6.5C2 5.95 2.196 5.47933 2.588 5.088C2.98 4.69667 3.45067 4.50067 4 4.5H10L12 6.5H20C20.55 6.5 21.021 6.696 21.413 7.088C21.805 7.48 22.0007 7.95067 22 8.5V18.5C22 19.05 21.8043 19.521 21.413 19.913C21.0217 20.305 20.5507 20.5007 20 20.5H4ZM4 18.5H20V8.5H11.175L9.175 6.5H4V18.5Z" fill="#EBEBEB"/>
</svg>
