<svg width="28" height="27" viewBox="0 0 28 27" fill="none" xmlns="http://www.w3.org/2000/svg">
<path d="M14.5 3C13.0555 3 11.6251 3.27833 10.2905 3.81911C8.9559 4.35988 7.74327 5.15251 6.72183 6.15173C4.65893 8.16975 3.5 10.9068 3.5 13.7607C3.5 18.5169 6.657 22.5522 11.024 23.9833C11.574 24.0694 11.75 23.7358 11.75 23.4453V21.6267C8.703 22.2724 8.054 20.1848 8.054 20.1848C7.548 18.9366 6.833 18.603 6.833 18.603C5.832 17.9358 6.91 17.9573 6.91 17.9573C8.01 18.0327 8.593 19.0657 8.593 19.0657C9.55 20.7013 11.167 20.2171 11.794 19.9588C11.893 19.2594 12.179 18.7859 12.487 18.5169C10.045 18.2479 7.482 17.3225 7.482 13.2226C7.482 12.0282 7.9 11.0705 8.615 10.3065C8.505 10.0375 8.12 8.91838 8.725 7.46568C8.725 7.46568 9.649 7.17515 11.75 8.56327C12.619 8.32654 13.565 8.20817 14.5 8.20817C15.435 8.20817 16.381 8.32654 17.25 8.56327C19.351 7.17515 20.275 7.46568 20.275 7.46568C20.88 8.91838 20.495 10.0375 20.385 10.3065C21.1 11.0705 21.518 12.0282 21.518 13.2226C21.518 17.3332 18.944 18.2371 16.491 18.5061C16.887 18.8397 17.25 19.4961 17.25 20.4969V23.4453C17.25 23.7358 17.426 24.0802 17.987 23.9833C22.354 22.5414 25.5 18.5169 25.5 13.7607C25.5 12.3476 25.2155 10.9483 24.6627 9.64275C24.1099 8.3372 23.2996 7.15095 22.2782 6.15173C21.2567 5.15251 20.0441 4.35988 18.7095 3.81911C17.3749 3.27833 15.9445 3 14.5 3Z" fill="black"/>
</svg>
