<svg width="34" height="34" viewBox="0 0 34 34" fill="none" xmlns="http://www.w3.org/2000/svg">
<path fill-rule="evenodd" clip-rule="evenodd" d="M13.0418 4.50781C10.561 5.29372 8.37042 6.80046 6.74914 8.83601C5.12787 10.8716 4.14937 13.3437 3.93834 15.9375H10.285C10.3318 14.3848 10.4763 12.8548 10.7171 11.4041C11.0103 9.62765 11.4467 7.98998 12.0063 6.58748C12.2895 5.86512 12.6361 5.16919 13.0418 4.50781ZM17 1.77081C15.0001 1.77081 13.0197 2.16473 11.1721 2.93006C9.32437 3.6954 7.64552 4.81717 6.23136 6.23133C4.8172 7.64549 3.69543 9.32434 2.93009 11.172C2.16476 13.0197 1.77084 15.0001 1.77084 17C1.77084 18.9999 2.16476 20.9802 2.93009 22.8279C3.69543 24.6756 4.8172 26.3545 6.23136 27.7686C7.64552 29.1828 9.32437 30.3046 11.1721 31.0699C13.0197 31.8352 15.0001 32.2291 17 32.2291C21.039 32.2291 24.9126 30.6246 27.7687 27.7686C30.6247 24.9126 32.2292 21.039 32.2292 17C32.2292 12.961 30.6247 9.08736 27.7687 6.23133C24.9126 3.37531 21.039 1.77081 17 1.77081ZM17 3.89581C16.6303 3.89581 16.1514 4.07431 15.5961 4.64948C15.0351 5.23031 14.4755 6.1384 13.9797 7.37656C13.4881 8.60765 13.0872 10.0923 12.8123 11.7526C12.5928 13.0843 12.4582 14.4967 12.4128 15.9375H21.5872C21.5462 14.5353 21.4128 13.1373 21.1877 11.7526C20.9128 10.0923 20.5119 8.60765 20.0203 7.37656C19.5245 6.1384 18.9649 5.23031 18.4053 4.64948C17.8486 4.07431 17.3712 3.89581 17 3.89581ZM23.715 15.9375C23.6725 14.4184 23.5281 12.9039 23.2829 11.4041C22.9897 9.62765 22.5533 7.98998 21.9938 6.58748C21.71 5.86507 21.363 5.16914 20.9568 4.50781C22.9599 5.14139 24.781 6.2478 26.2664 7.73356C28.464 9.93172 29.8086 12.8394 30.0603 15.9375H23.715ZM21.5872 18.0625H12.4128C12.4568 19.5032 12.5928 20.9156 12.8123 22.2473C13.0872 23.9076 13.4881 25.3923 13.9797 26.6234C14.4755 27.8616 15.0351 28.7696 15.5947 29.3505C16.1514 29.9256 16.6288 30.1041 17 30.1041C17.3698 30.1041 17.8486 29.9256 18.4039 29.3505C18.9649 28.7696 19.5245 27.8616 20.0203 26.6234C20.5119 25.3923 20.9128 23.9076 21.1877 22.2473C21.4073 20.9156 21.5418 19.5032 21.5872 18.0625ZM20.9582 29.4921C21.3407 28.8773 21.6878 28.1761 21.9923 27.4125C22.5533 26.01 22.9897 24.3723 23.2829 22.5958C23.5276 21.096 23.6715 19.5815 23.7136 18.0625H30.0603C29.8492 20.6562 28.8707 23.1284 27.2495 25.1639C25.6282 27.1995 23.439 28.7062 20.9582 29.4921ZM13.0404 29.4921C12.6352 28.8307 12.2891 28.1348 12.0063 27.4125C11.4453 26.01 11.0089 24.3723 10.7157 22.5958C10.471 21.096 10.3271 19.5815 10.285 18.0625H3.93834C4.14926 20.656 5.12755 23.1281 6.74856 25.1636C8.36957 27.1992 10.5599 28.706 13.0404 29.4921Z" fill="white"/>
</svg>
