<svg width="27" height="27" viewBox="0 0 27 27" fill="none" xmlns="http://www.w3.org/2000/svg">
<path d="M10.8133 3.75C11.138 3.75004 11.4586 3.82308 11.7513 3.96372C12.0441 4.10436 12.3014 4.30899 12.5044 4.5625L14.021 6.45833H22.1666C22.7413 6.45833 23.2924 6.68661 23.6987 7.09294C24.105 7.49926 24.3333 8.05036 24.3333 8.625V21.0833C24.3333 21.658 24.105 22.2091 23.6987 22.6154C23.2924 23.0217 22.7413 23.25 22.1666 23.25H4.83329C4.25866 23.25 3.70756 23.0217 3.30123 22.6154C2.8949 22.2091 2.66663 21.658 2.66663 21.0833V5.91667C2.66663 5.34203 2.8949 4.79093 3.30123 4.3846C3.70756 3.97827 4.25866 3.75 4.83329 3.75H10.8133ZM10.8133 5.91667H4.83329V21.0833H22.1666V8.625H14.02C13.6952 8.62496 13.3746 8.55192 13.0819 8.41128C12.7892 8.27064 12.5318 8.06601 12.3289 7.8125L10.8133 5.91667ZM13.5 10.25C13.7873 10.25 14.0628 10.3641 14.266 10.5673C14.4692 10.7705 14.5833 11.046 14.5833 11.3333V13.5H16.75C17.0373 13.5 17.3128 13.6141 17.516 13.8173C17.7192 14.0205 17.8333 14.296 17.8333 14.5833C17.8333 14.8707 17.7192 15.1462 17.516 15.3494C17.3128 15.5525 17.0373 15.6667 16.75 15.6667H14.5833V17.8333C14.5833 18.1207 14.4692 18.3962 14.266 18.5994C14.0628 18.8025 13.7873 18.9167 13.5 18.9167C13.2126 18.9167 12.9371 18.8025 12.7339 18.5994C12.5308 18.3962 12.4166 18.1207 12.4166 17.8333V15.6667H10.25C9.96264 15.6667 9.68709 15.5525 9.48393 15.3494C9.28076 15.1462 9.16663 14.8707 9.16663 14.5833C9.16663 14.296 9.28076 14.0205 9.48393 13.8173C9.68709 13.6141 9.96264 13.5 10.25 13.5H12.4166V11.3333C12.4166 11.046 12.5308 10.7705 12.7339 10.5673C12.9371 10.3641 13.2126 10.25 13.5 10.25Z" fill="#FF7B00"/>
</svg>
