<svg width="27" height="27" viewBox="0 0 27 27" fill="none" xmlns="http://www.w3.org/2000/svg">
<path d="M14 3C12.5555 3 11.1251 3.27833 9.79048 3.81911C8.4559 4.35988 7.24327 5.15251 6.22183 6.15173C4.15893 8.16975 3 10.9068 3 13.7607C3 18.5169 6.157 22.5522 10.524 23.9833C11.074 24.0694 11.25 23.7358 11.25 23.4453V21.6267C8.203 22.2724 7.554 20.1848 7.554 20.1848C7.048 18.9366 6.333 18.603 6.333 18.603C5.332 17.9358 6.41 17.9573 6.41 17.9573C7.51 18.0327 8.093 19.0657 8.093 19.0657C9.05 20.7013 10.667 20.2171 11.294 19.9588C11.393 19.2594 11.679 18.7859 11.987 18.5169C9.545 18.2479 6.982 17.3225 6.982 13.2226C6.982 12.0282 7.4 11.0705 8.115 10.3065C8.005 10.0375 7.62 8.91838 8.225 7.46568C8.225 7.46568 9.149 7.17515 11.25 8.56327C12.119 8.32654 13.065 8.20817 14 8.20817C14.935 8.20817 15.881 8.32654 16.75 8.56327C18.851 7.17515 19.775 7.46568 19.775 7.46568C20.38 8.91838 19.995 10.0375 19.885 10.3065C20.6 11.0705 21.018 12.0282 21.018 13.2226C21.018 17.3332 18.444 18.2371 15.991 18.5061C16.387 18.8397 16.75 19.4961 16.75 20.4969V23.4453C16.75 23.7358 16.926 24.0802 17.487 23.9833C21.854 22.5414 25 18.5169 25 13.7607C25 12.3476 24.7155 10.9483 24.1627 9.64275C23.6099 8.3372 22.7996 7.15095 21.7782 6.15173C20.7567 5.15251 19.5441 4.35988 18.2095 3.81911C16.8749 3.27833 15.4445 3 14 3Z" fill="white"/>
</svg>
