<svg width="37" height="37" viewBox="0 0 37 37" fill="none" xmlns="http://www.w3.org/2000/svg">
<path d="M18.6001 13.25C18.0034 13.25 17.4311 13.4871 17.0091 13.909C16.5872 14.331 16.3501 14.9033 16.3501 15.5V15.6605C16.3501 15.8594 16.2711 16.0502 16.1304 16.1908C15.9898 16.3315 15.799 16.4105 15.6001 16.4105C15.4012 16.4105 15.2104 16.3315 15.0698 16.1908C14.9291 16.0502 14.8501 15.8594 14.8501 15.6605V15.5C14.8501 14.5054 15.2452 13.5516 15.9484 12.8483C16.6517 12.1451 17.6055 11.75 18.6001 11.75H18.7741C19.5045 11.7502 20.2172 11.9741 20.8166 12.3915C21.4159 12.8088 21.8731 13.3997 22.1266 14.0847C22.3802 14.7696 22.4179 15.5158 22.2347 16.2228C22.0516 16.9298 21.6563 17.5638 21.1021 18.0395L19.9456 19.031C19.7591 19.1913 19.6094 19.3899 19.5066 19.6133C19.4038 19.8367 19.3504 20.0796 19.3501 20.3255V21.125C19.3501 21.3239 19.2711 21.5147 19.1304 21.6553C18.9898 21.796 18.799 21.875 18.6001 21.875C18.4012 21.875 18.2104 21.796 18.0698 21.6553C17.9291 21.5147 17.8501 21.3239 17.8501 21.125V20.3255C17.8501 19.3895 18.2596 18.5015 18.9691 17.8925L20.1241 16.9025C20.4462 16.6265 20.676 16.2585 20.7827 15.848C20.8893 15.4375 20.8677 15.0041 20.7206 14.6063C20.5736 14.2084 20.3082 13.8652 19.9602 13.6227C19.6122 13.3802 19.1983 13.2501 18.7741 13.25H18.6001ZM18.6001 25.25C18.8985 25.25 19.1846 25.1315 19.3956 24.9205C19.6066 24.7095 19.7251 24.4234 19.7251 24.125C19.7251 23.8266 19.6066 23.5405 19.3956 23.3295C19.1846 23.1185 18.8985 23 18.6001 23C18.3017 23 18.0156 23.1185 17.8046 23.3295C17.5936 23.5405 17.4751 23.8266 17.4751 24.125C17.4751 24.4234 17.5936 24.7095 17.8046 24.9205C18.0156 25.1315 18.3017 25.25 18.6001 25.25Z" fill="#FF7B00"/>
<path d="M5.8501 18.5C5.8501 15.1185 7.1934 11.8755 9.58449 9.48439C11.9756 7.0933 15.2186 5.75 18.6001 5.75C21.9816 5.75 25.2246 7.0933 27.6157 9.48439C30.0068 11.8755 31.3501 15.1185 31.3501 18.5C31.3501 21.8815 30.0068 25.1245 27.6157 27.5156C25.2246 29.9067 21.9816 31.25 18.6001 31.25C15.2186 31.25 11.9756 29.9067 9.58449 27.5156C7.1934 25.1245 5.8501 21.8815 5.8501 18.5ZM18.6001 7.25C15.6164 7.25 12.7549 8.43526 10.6451 10.545C8.53536 12.6548 7.3501 15.5163 7.3501 18.5C7.3501 21.4837 8.53536 24.3452 10.6451 26.455C12.7549 28.5647 15.6164 29.75 18.6001 29.75C21.5838 29.75 24.4453 28.5647 26.555 26.455C28.6648 24.3452 29.8501 21.4837 29.8501 18.5C29.8501 15.5163 28.6648 12.6548 26.555 10.545C24.4453 8.43526 21.5838 7.25 18.6001 7.25Z" fill="#FF7B00"/>
</svg>
