<svg width="53" height="54" viewBox="0 0 53 54" fill="none" xmlns="http://www.w3.org/2000/svg">
<path d="M43.0625 46.875C44.8196 46.875 46.5047 46.177 47.7471 44.9346C48.9895 43.6922 49.6875 42.0071 49.6875 40.25V30.3125C49.6875 28.5554 48.9895 26.8703 47.7471 25.6279C46.5047 24.3855 44.8196 23.6875 43.0625 23.6875H9.9375C8.18044 23.6875 6.49535 24.3855 5.25292 25.6279C4.01049 26.8703 3.3125 28.5554 3.3125 30.3125V40.25C3.3125 42.0071 4.01049 43.6922 5.25292 44.9346C6.49535 46.177 8.18044 46.875 9.9375 46.875H43.0625ZM3.3125 22.9057V13.75C3.3125 11.9929 4.01049 10.3078 5.25292 9.06542C6.49535 7.82299 8.18044 7.125 9.9375 7.125H21.8161C23.1332 7.12557 24.3961 7.64901 25.3274 8.58029L30.0135 13.2642C30.3226 13.5755 30.7444 13.75 31.1839 13.75H43.0625C44.8196 13.75 46.5047 14.448 47.7471 15.6904C48.9895 16.9328 49.6875 18.6179 49.6875 20.375V22.9057C47.8678 21.2724 45.5077 20.3709 43.0625 20.375H9.9375C7.4923 20.3709 5.13221 21.2724 3.3125 22.9057Z" fill="#FF7B00"/>
</svg>
