<svg width="41" height="41" viewBox="0 0 41 41" fill="none" xmlns="http://www.w3.org/2000/svg">
<rect width="41" height="41" rx="20.5" fill="#162832"/>
<path d="M11.4591 19.3888C11.1651 19.6835 11 20.083 11 20.4995C11 20.916 11.1651 21.3154 11.4591 21.6101L17.3781 27.5395C17.6726 27.8344 18.072 28 18.4885 28C18.9049 28 19.3043 27.8344 19.5988 27.5395C19.8933 27.2447 20.0587 26.8448 20.0587 26.4278C20.0587 26.0109 19.8933 25.611 19.5988 25.3161L16.3588 22.0711L28.4302 22.0711C28.8466 22.0711 29.2458 21.9056 29.5402 21.6108C29.8346 21.3161 30 20.9163 30 20.4995C30 20.0826 29.8346 19.6829 29.5402 19.3881C29.2458 19.0934 28.8466 18.9278 28.4302 18.9278L16.3588 18.9278L19.5988 15.6839C19.7446 15.5379 19.8603 15.3646 19.9392 15.1738C20.0181 14.9831 20.0587 14.7786 20.0587 14.5722C20.0587 14.3657 20.0181 14.1613 19.9392 13.9705C19.8603 13.7798 19.7446 13.6065 19.5988 13.4605C19.453 13.3145 19.2799 13.1987 19.0894 13.1197C18.8989 13.0407 18.6947 13 18.4885 13C18.2822 13 18.0781 13.0407 17.8875 13.1197C17.697 13.1987 17.5239 13.3145 17.3781 13.4605L11.4591 19.3888Z" fill="#7E7E7E"/>
</svg>
