<svg width="37" height="37" viewBox="0 0 37 37" fill="none" xmlns="http://www.w3.org/2000/svg">
<path d="M18.5431 27.4791H28.7581C29.1559 27.5014 29.5527 27.4214 29.9109 27.2468C30.269 27.0722 30.5764 26.8088 30.8038 26.4816C31.0312 26.1545 31.171 25.7746 31.21 25.3781C31.2489 24.9815 31.1856 24.5817 31.0261 24.2166C30.4861 22.5846 28.3336 20.6271 28.3336 18.7011C28.3336 14.4261 28.3336 13.3011 26.2276 10.7871C25.5461 9.97788 24.7011 9.32202 23.7481 8.86258L22.5736 8.29258C22.3765 8.17363 22.2065 8.01476 22.0745 7.82617C21.9425 7.63759 21.8514 7.42347 21.8071 7.19758C21.6897 6.43619 21.2871 5.74796 20.681 5.27247C20.0748 4.79697 19.3105 4.56982 18.5431 4.63708C17.7895 4.59183 17.0461 4.82911 16.4581 5.30257C15.8701 5.77604 15.4797 6.45169 15.3631 7.19758C15.3102 7.43127 15.2066 7.65048 15.0597 7.8397C14.9127 8.02892 14.7259 8.18353 14.5126 8.29258L13.3381 8.86258C12.3856 9.3222 11.5412 9.97805 10.8601 10.7871C8.75559 13.3011 8.75559 14.4261 8.75559 18.7011C8.75559 20.6271 6.70059 22.3881 6.16059 24.1176C5.83509 25.1631 5.65509 27.4791 8.38059 27.4791H18.5431Z" stroke="#FF7B00" stroke-width="1.5" stroke-linecap="round" stroke-linejoin="round"/>
<path d="M23.4376 27.479C23.4505 28.1253 23.3326 28.7675 23.0912 29.3671C22.8498 29.9668 22.4897 30.5115 22.0327 30.9686C21.5756 31.4256 21.0309 31.7857 20.4312 32.0271C19.8316 32.2685 19.1894 32.3864 18.5431 32.3735C17.8967 32.3872 17.2541 32.27 16.6542 32.0288C16.0542 31.7877 15.5093 31.4276 15.0522 30.9704C14.595 30.5131 14.2351 29.968 13.9942 29.368C13.7532 28.768 13.6362 28.1254 13.6501 27.479" stroke="#FF7B00" stroke-width="1.5" stroke-linecap="round" stroke-linejoin="round"/>
</svg>
