<svg width="28" height="23" viewBox="0 0 28 23" fill="none" xmlns="http://www.w3.org/2000/svg">
<path d="M6.125 0.25C4.63316 0.25 3.20242 0.842632 2.14752 1.89752C1.09263 2.95242 0.5 4.38316 0.5 5.875V17.125C0.5 18.6168 1.09263 20.0476 2.14752 21.1025C3.20242 22.1574 4.63316 22.75 6.125 22.75H21.875C23.3668 22.75 24.7976 22.1574 25.8525 21.1025C26.9074 20.0476 27.5 18.6168 27.5 17.125V5.875C27.5 4.38316 26.9074 2.95242 25.8525 1.89752C24.7976 0.842632 23.3668 0.25 21.875 0.25H6.125ZM11.75 2.5H21.875C22.7701 2.5 23.6286 2.85558 24.2615 3.48851C24.8944 4.12145 25.25 4.97989 25.25 5.875V17.125C25.25 18.0201 24.8944 18.8786 24.2615 19.5115C23.6286 20.1444 22.7701 20.5 21.875 20.5H11.75V2.5Z" fill="#FF7B00"/>
</svg>
