<svg width="25" height="25" viewBox="0 0 25 25" fill="none" xmlns="http://www.w3.org/2000/svg">
<path d="M4.76903 21.2901C4.30903 21.7501 3.59903 21.0401 4.05903 20.5901L7.80903 16.8301C6.49327 15.3748 5.76609 13.482 5.76903 11.5201C5.76903 7.13006 9.33903 3.56006 13.729 3.56006C18.119 3.56006 21.689 7.13006 21.689 11.5201C21.689 15.9101 18.119 19.4801 13.729 19.4801C11.749 19.4801 9.91903 18.7501 8.51903 17.5401L4.76903 21.2901ZM20.69 11.5201C20.69 7.68006 17.56 4.56006 13.73 4.56006C9.89003 4.56006 6.77003 7.68006 6.77003 11.5201C6.77003 15.3601 9.89003 18.4801 13.73 18.4801C17.56 18.4801 20.69 15.3601 20.69 11.5201Z" fill="#FF7B00"/>
</svg>
