<svg width="25" height="25" viewBox="0 0 25 25" fill="none" xmlns="http://www.w3.org/2000/svg">
<g clip-path="url(#clip0_299_456)">
<path d="M19.7001 17.5V19.5H7.70007V17.5C7.70007 17.5 7.70007 13.5 13.7001 13.5C19.7001 13.5 19.7001 17.5 19.7001 17.5ZM16.7001 8.5C16.7001 7.90666 16.5241 7.32664 16.1945 6.83329C15.8648 6.33994 15.3963 5.95543 14.8481 5.72836C14.2999 5.5013 13.6967 5.44189 13.1148 5.55765C12.5329 5.6734 11.9983 5.95912 11.5788 6.37868C11.1592 6.79824 10.8735 7.33279 10.7577 7.91473C10.642 8.49667 10.7014 9.09987 10.9284 9.64805C11.1555 10.1962 11.54 10.6648 12.0334 10.9944C12.5267 11.3241 13.1067 11.5 13.7001 11.5C14.4957 11.5 15.2588 11.1839 15.8214 10.6213C16.384 10.0587 16.7001 9.29565 16.7001 8.5ZM19.9001 13.56C20.4467 14.0643 20.8874 14.6724 21.1965 15.3489C21.5055 16.0254 21.6767 16.7566 21.7001 17.5V19.5H24.7001V17.5C24.7001 17.5 24.7001 14.05 19.9001 13.56ZM18.7001 5.5C18.3979 5.50002 18.0976 5.54726 17.8101 5.64C18.3951 6.47897 18.7088 7.47718 18.7088 8.5C18.7088 9.52282 18.3951 10.521 17.8101 11.36C18.0976 11.4527 18.3979 11.5 18.7001 11.5C19.4957 11.5 20.2588 11.1839 20.8214 10.6213C21.384 10.0587 21.7001 9.29565 21.7001 8.5C21.7001 7.70435 21.384 6.94129 20.8214 6.37868C20.2588 5.81607 19.4957 5.5 18.7001 5.5ZM8.70007 10.5H5.70007V7.5H3.70007V10.5H0.700073V12.5H3.70007V15.5H5.70007V12.5H8.70007V10.5Z" fill="white"/>
</g>
<defs>
<clipPath id="clip0_299_456">
<rect width="24" height="24" fill="white" transform="translate(0.700073 0.5)"/>
</clipPath>
</defs>
</svg>
