<svg width="23" height="24" viewBox="0 0 23 24" fill="none" xmlns="http://www.w3.org/2000/svg">
<g clip-path="url(#clip0_401_216)">
<path d="M11.4026 0.506592C5.57789 0.506592 5.94158 3.04245 5.94158 3.04245L5.94805 5.66969H11.5065V6.45845H3.74032C3.74032 6.45845 0.0130615 6.03408 0.0130615 11.9343C0.0130615 17.8346 3.2663 17.6254 3.2663 17.6254H5.20783V14.8874C5.20783 14.8874 5.10316 11.6214 8.40914 11.6214H13.9221C13.9221 11.6214 17.0195 11.6716 17.0195 8.61612V3.56406C17.0195 3.56406 17.4899 0.506592 11.4026 0.506592ZM8.33771 2.27335C8.46906 2.27323 8.59915 2.29912 8.72052 2.34953C8.8419 2.39993 8.95218 2.47388 9.04506 2.56712C9.13793 2.66036 9.21159 2.77108 9.2618 2.89293C9.31201 3.01478 9.33779 3.14537 9.33767 3.27724C9.33779 3.4091 9.31201 3.53969 9.2618 3.66154C9.21159 3.78339 9.13793 3.89411 9.04506 3.98735C8.95218 4.08059 8.8419 4.15454 8.72052 4.20494C8.59915 4.25535 8.46906 4.28124 8.33771 4.28112C8.20636 4.28124 8.07628 4.25535 7.95491 4.20494C7.83353 4.15454 7.72325 4.08059 7.63037 3.98735C7.53749 3.89411 7.46384 3.78339 7.41363 3.66154C7.36342 3.53969 7.33763 3.4091 7.33775 3.27724C7.33763 3.14537 7.36342 3.01478 7.41363 2.89293C7.46384 2.77108 7.53749 2.66036 7.63037 2.56712C7.72325 2.47388 7.83353 2.39993 7.95491 2.34953C8.07628 2.29912 8.20636 2.27323 8.33771 2.27335Z" fill="url(#paint0_linear_401_216)"/>
<path d="M11.568 23.4212C17.3927 23.4212 17.0291 20.8853 17.0291 20.8853L17.0226 18.2582H11.464V17.4694H19.2302C19.2302 17.4694 22.9575 17.8938 22.9575 11.9934C22.9575 6.09318 19.7042 6.30243 19.7042 6.30243H17.7627V9.04033C17.7627 9.04033 17.8674 12.3063 14.5614 12.3063H9.04842C9.04842 12.3063 5.95105 12.2561 5.95105 15.3117V20.3638C5.95105 20.3638 5.48072 23.4212 11.5679 23.4212M14.6328 21.6546C14.5015 21.6547 14.3714 21.6288 14.25 21.5784C14.1287 21.528 14.0184 21.4541 13.9255 21.3609C13.8326 21.2676 13.759 21.1569 13.7088 21.035C13.6585 20.9132 13.6328 20.7826 13.6329 20.6507C13.6327 20.5189 13.6585 20.3883 13.7087 20.2664C13.7589 20.1445 13.8326 20.0338 13.9255 19.9406C14.0183 19.8473 14.1286 19.7734 14.25 19.7229C14.3714 19.6725 14.5015 19.6466 14.6328 19.6468C14.7642 19.6466 14.8943 19.6725 15.0156 19.7229C15.137 19.7733 15.2473 19.8473 15.3402 19.9405C15.4331 20.0338 15.5067 20.1445 15.5569 20.2663C15.6071 20.3882 15.6329 20.5188 15.6328 20.6506C15.6329 20.7825 15.6071 20.9131 15.5569 21.035C15.5067 21.1568 15.4331 21.2675 15.3402 21.3608C15.2473 21.454 15.137 21.5279 15.0156 21.5784C14.8943 21.6288 14.7642 21.6547 14.6328 21.6546Z" fill="url(#paint1_linear_401_216)"/>
</g>
<defs>
<linearGradient id="paint0_linear_401_216" x1="220.509" y1="206.61" x2="1361.97" y2="1332.27" gradientUnits="userSpaceOnUse">
<stop stop-color="#387EB8"/>
<stop offset="1" stop-color="#366994"/>
</linearGradient>
<linearGradient id="paint1_linear_401_216" x1="331.403" y1="358.607" x2="1556.98" y2="1512.66" gradientUnits="userSpaceOnUse">
<stop stop-color="#FFE052"/>
<stop offset="1" stop-color="#FFC331"/>
</linearGradient>
<clipPath id="clip0_401_216">
<rect width="23" height="23" fill="white" transform="translate(0 0.5)"/>
</clipPath>
</defs>
</svg>
